<svg width="189" height="53" viewBox="0 0 189 53" fill="none" xmlns="http://www.w3.org/2000/svg">
<path fill-rule="evenodd" clip-rule="evenodd" d="M64.8818 3.889L59.9858 13.61C56.0248 11.377 52.5688 10.297 49.0398 10.297C45.7278 10.297 44.2158 11.233 44.2158 13.177C44.2158 14.761 45.0068 15.698 48.0318 17.57L56.4558 22.97C63.1528 27.219 65.8898 31.395 65.8898 37.587C65.8898 47.237 59.2648 52.565 47.5998 52.565C41.0468 52.565 34.6388 50.765 29.0948 47.525L34.1348 37.516C38.7428 40.539 43.5678 42.196 48.0318 42.196C52.1358 42.196 54.4408 40.612 54.4408 38.091C54.4408 36.219 53.2158 34.78 49.6158 32.547L41.8388 27.578C35.7898 23.762 32.7668 19.154 32.7668 13.322C32.7668 5.04 38.8158 0 48.9678 0C54.2958 0 59.8408 1.368 64.8818 3.889Z" fill="#404040"/>
<path fill-rule="evenodd" clip-rule="evenodd" d="M71.358 51.4848H82.231V18.2178H71.358V51.4848ZM70.926 13.1768H82.663V1.0798H70.926V13.1768Z" fill="#404040"/>
<path fill-rule="evenodd" clip-rule="evenodd" d="M112.327 17.3539V28.0109C110.671 27.8669 110.022 27.8669 109.087 27.8669C103.686 27.8669 100.446 30.5309 100.446 37.9479V51.4849H89.5731V18.2179H99.8701C99.8701 21.6019 99.6531 24.8419 98.8611 29.1629L99.1491 29.2349C100.878 20.8819 104.55 17.2089 109.734 17.2089C110.814 17.2089 111.606 17.2819 112.327 17.3539Z" fill="#404040"/>
<path fill-rule="evenodd" clip-rule="evenodd" d="M124.78 31.4671L124.925 31.6831C125.356 31.1791 126.653 31.0341 127.949 31.0341H135.221C136.446 31.0341 137.526 31.1071 137.958 31.6111L138.102 31.4671C137.885 27.3631 135.438 25.2751 131.765 25.2751C127.949 25.2751 125.285 27.5781 124.78 31.4671ZM148.686 34.7071V37.5871H128.957C127.085 37.5871 126.149 37.5161 125.069 36.7231L124.925 36.9401L125.213 37.7321C126.149 41.5481 128.957 43.6361 133.493 43.6361C137.309 43.6361 140.839 42.1961 143.142 40.6841L146.743 48.9641C142.71 51.3411 138.534 52.5651 133.565 52.5651C122.044 52.5651 114.555 45.9401 114.555 34.7801C114.555 23.8341 121.901 17.2091 132.198 17.2091C142.423 17.2091 148.686 23.4741 148.686 34.7071Z" fill="#404040"/>
<path fill-rule="evenodd" clip-rule="evenodd" d="M188.07 30.6752V51.4852H177.268V33.6992C177.268 28.9462 175.18 26.6432 171.653 26.6432C167.548 26.6432 164.74 29.0912 164.74 35.4272V51.4852H153.867V18.2182H164.596C164.596 22.3222 164.38 23.6912 163.948 25.7062L164.235 25.8512C166.253 20.9542 169.708 17.1382 176.405 17.1382C183.821 17.1382 188.07 21.6742 188.07 30.6752Z" fill="#404040"/>
<path fill-rule="evenodd" clip-rule="evenodd" d="M2.80863 37.3343V40.2693C2.80863 40.5213 2.77363 40.6473 2.71863 40.7363L2.75463 40.7723C2.84463 40.7363 3.04263 40.7193 3.29463 40.7193H12.8736V43.5103H3.29463C3.04263 43.5103 2.84463 43.4733 2.75463 43.4383L2.71863 43.4733C2.77363 43.5633 2.80863 43.6893 2.80863 43.9413V46.8953H0.27063V37.3343H2.80863Z" fill="#404040"/>
<path fill-rule="evenodd" clip-rule="evenodd" d="M3.835 33.5921C5.06 33.5921 5.654 33.6461 6.41 33.7891L6.446 33.7171C5.168 33.1781 4.285 32.3671 4.285 30.7651C4.285 28.9101 5.42 27.7581 7.671 27.7581H12.874V30.4591H8.427C7.112 30.4591 6.662 30.9981 6.662 31.8811C6.662 32.8351 7.274 33.5921 8.858 33.5921H12.874V36.3111H0V33.5921H3.835Z" fill="#404040"/>
<path fill-rule="evenodd" clip-rule="evenodd" d="M7.8682 23.9085L7.9232 23.8715C7.7972 23.7635 7.7612 23.4395 7.7612 23.1155V21.2975C7.7612 20.9905 7.7782 20.7205 7.9042 20.6135L7.8682 20.5765C6.8422 20.6315 6.3202 21.2425 6.3202 22.1615C6.3202 23.1155 6.8962 23.7815 7.8682 23.9085ZM8.6792 17.9295H9.3992V22.8635C9.3992 23.3325 9.3812 23.5655 9.1822 23.8365L9.2372 23.8715L9.4342 23.8005C10.3892 23.5655 10.9112 22.8635 10.9112 21.7285C10.9112 20.7755 10.5522 19.8925 10.1732 19.3165L12.2442 18.4165C12.8382 19.4245 13.1442 20.4695 13.1442 21.7115C13.1442 24.5925 11.4872 26.4655 8.6962 26.4655C5.9602 26.4655 4.3042 24.6285 4.3042 22.0535C4.3042 19.4965 5.8702 17.9295 8.6792 17.9295Z" fill="#404040"/>
</svg>
